<mxfile host="Electron" agent="Mozilla/5.0 (Windows NT 10.0; Win64; x64) AppleWebKit/537.36 (KHTML, like Gecko) draw.io/27.0.5 Chrome/134.0.6998.205 Electron/35.3.0 Safari/537.36" version="27.0.5">
  <diagram name="Страница — 1" id="JDWO9r9pCOaZW01IRr35">
    <mxGraphModel dx="715" dy="496" grid="1" gridSize="10" guides="1" tooltips="1" connect="1" arrows="1" fold="1" page="1" pageScale="1" pageWidth="827" pageHeight="1169" math="0" shadow="0">
      <root>
        <mxCell id="0" />
        <mxCell id="1" parent="0" />
        <mxCell id="tsoww7jUtQrjiotJbiL8-1" value="" style="rounded=1;whiteSpace=wrap;html=1;fillColor=#4C4C4C;strokeColor=none;" vertex="1" parent="1">
          <mxGeometry x="460" y="370" width="300" height="350" as="geometry" />
        </mxCell>
        <mxCell id="tsoww7jUtQrjiotJbiL8-2" value="&lt;font face=&quot;Gilroy Medium&quot; style=&quot;font-size: 18px;&quot;&gt;+ Добавить контакт&lt;/font&gt;" style="rounded=1;whiteSpace=wrap;html=1;strokeColor=none;fillColor=#4646BC;arcSize=41;fontColor=#FFFFFF;" vertex="1" parent="1">
          <mxGeometry x="460" y="730" width="300" height="30" as="geometry" />
        </mxCell>
        <mxCell id="tsoww7jUtQrjiotJbiL8-3" value="Введите логин или электронную почту своего знакомого, чтобы найти его в Kosmos!" style="text;html=1;align=left;verticalAlign=top;whiteSpace=wrap;rounded=0;fontSize=18;fontFamily=Gilroy;fontColor=#FFFFFF;" vertex="1" parent="1">
          <mxGeometry x="470" y="400" width="280" height="70" as="geometry" />
        </mxCell>
        <mxCell id="tsoww7jUtQrjiotJbiL8-4" value="&lt;div&gt;&lt;br&gt;&lt;/div&gt;" style="rounded=1;whiteSpace=wrap;html=1;strokeColor=#B9B9B9;fillColor=#FFFFFF;arcSize=41;fontColor=#FFFFFF;" vertex="1" parent="1">
          <mxGeometry x="475" y="490" width="270" height="30" as="geometry" />
        </mxCell>
        <mxCell id="tsoww7jUtQrjiotJbiL8-5" value="&lt;font face=&quot;Gilroy Medium&quot; style=&quot;font-size: 18px;&quot;&gt;Поиск&lt;/font&gt;" style="rounded=1;whiteSpace=wrap;html=1;strokeColor=none;fillColor=#8D8D2F;arcSize=41;fontColor=#FFFFFF;" vertex="1" parent="1">
          <mxGeometry x="475" y="530" width="270" height="30" as="geometry" />
        </mxCell>
        <mxCell id="tsoww7jUtQrjiotJbiL8-6" value="&lt;font face=&quot;Gilroy Medium&quot; style=&quot;font-size: 18px;&quot;&gt;Отмена&lt;/font&gt;" style="rounded=1;whiteSpace=wrap;html=1;strokeColor=none;fillColor=#8D8D2F;arcSize=41;fontColor=#FFFFFF;" vertex="1" parent="1">
          <mxGeometry x="475" y="670" width="270" height="30" as="geometry" />
        </mxCell>
      </root>
    </mxGraphModel>
  </diagram>
</mxfile>
